<svg xmlns="http://www.w3.org/2000/svg" width="1122" height="882" viewBox="160 330 780 280" preserveAspectRatio="xMidYMid meet" role="img" aria-label="次に通いたくなるお店を見つけよう">
  <title>次に通いたくなるお店を見つけよう</title>
  <g fill="#000000">
    <path d="M521.75 560.75 c-4 -0.70 -6.70 -1.40 -11.60 -3 -1.80 -0.60 -2.65 -1.20 -2.80 -1.95 -0.15 -0.55 -0.75 -2.85 -1.35 -5.05 -2.80 -10.25 -3.55 -15.60 -3.85 -27.50 -0.25 -10.10 0 -12.75 1.70 -18 0.40 -1.35 0.95 -3.85 1.15 -5.50 0.30 -2.20 0.95 -3.90 2.50 -6.50 3.55 -5.85 6.30 -9.05 16.95 -19.85 l10.20 -10.40 -3.45 0 c-1.90 0 -6.60 -0.35 -10.45 -0.70 -5.85 -0.60 -7.70 -1 -11.25 -2.40 -10.10 -4.10 -19.55 -12.60 -22.95 -20.65 -1.15 -2.80 -1.25 -3.55 -1.25 -11 0.05 -7.65 0.10 -8.20 1.60 -12.50 2 -5.85 4.10 -10.55 6.25 -13.90 1 -1.50 6.65 -7.70 12.60 -13.75 10.30 -10.50 11 -11.10 15.15 -13.15 2.40 -1.15 5.95 -3 7.85 -4.15 l3.50 -2 13.50 0.15 c9.60 0.10 14 0.35 15.25 0.80 0.95 0.35 2.50 0.80 3.45 0.95 0.95 0.15 6.15 3.30 12.50 7.50 10.50 6.95 15.85 10.05 19.70 11.25 1 0.35 1.85 0.80 1.85 1 0 0.20 1.10 1.15 2.45 2.20 1.35 1 3.15 2.80 4 4.05 1.35 1.95 1.55 2.65 1.55 5.70 0 3.15 -0.10 3.55 -1.25 4.30 -1.75 1.15 -3.10 4.50 -3.40 8.30 -0.15 1.80 -0.60 4.25 -1.10 5.50 -1.05 2.80 -1.70 6.95 -1.15 7.30 0.20 0.15 2.45 0.25 4.95 0.25 3.70 0 5.30 0.25 8.15 1.30 1.95 0.70 5.60 1.95 8.05 2.75 6.70 2.25 6.60 2.15 8.55 4.90 1 1.35 2.10 2.50 2.50 2.50 1.80 0 0.20 9.25 -2.55 14.55 -0.75 1.45 -3.65 2.45 -7.10 2.45 -1.05 0 -3.80 0.35 -6.15 0.80 -3.10 0.55 -5.75 0.65 -9.75 0.40 -5.40 -0.30 -5.65 -0.30 -11.25 1.50 -3.20 1 -5.95 1.80 -6.15 1.80 -0.20 0 -2.65 0.90 -5.50 2.05 l-5.15 2 -0.70 3.10 c-0.35 1.70 -1.40 4.90 -2.35 7.10 -2.30 5.55 -3.50 13.70 -3.95 27.25 -0.20 5.30 -0.55 8.30 -1.05 9.40 -1.15 2.55 -2.65 8.40 -2.65 10.20 0 0.95 -1.20 4.05 -2.95 7.65 -2.70 5.50 -4.60 10.50 -5.30 13.85 -0.15 0.80 -0.70 1.45 -1.40 1.70 -0.60 0.20 -2.90 2.05 -5.10 4.20 -8.10 7.80 -12.70 10.50 -19.65 11.50 -4.25 0.60 -6.40 0.55 -11.35 -0.25z m6.70 -38.65 c0.85 -1.10 2.95 -4.30 4.70 -7.20 3.35 -5.50 3.90 -7.10 6.20 -17.90 1.15 -5.45 2.10 -15.50 1.50 -15.50 -0.40 0 -4.35 5.30 -6.15 8.25 -2.95 4.85 -8.90 18.35 -9.95 22.50 -0.75 3.05 -0.40 7.40 0.80 10.65 0.60 1.55 1.15 1.40 2.90 -0.80z m20.30 -92.05 c0.15 -0.55 1.15 -1.15 2.55 -1.55 1.35 -0.40 3.20 -1.50 4.65 -2.80 2.30 -2.05 3.05 -3.35 4.80 -8.30 0.45 -1.25 1.70 -3.35 2.80 -4.55 1.05 -1.25 1.95 -2.35 1.95 -2.50 0 -0.15 -0.75 -0.80 -1.60 -1.45 -1.55 -1.05 -2.05 -1.15 -7.40 -1 -8.60 0.25 -15.50 2.30 -18 5.35 -0.65 0.85 -3.10 3.45 -5.45 5.90 l-4.25 4.35 1 1.40 c1.40 1.85 4.55 3.30 10.45 4.75 6.35 1.55 8.10 1.65 8.50 0.40z"/>
    <path d="M197 538.15 c-3.95 -1.35 -6.10 -3.40 -8.15 -7.75 -1.20 -2.50 -1.65 -4 -2.85 -9.90 -0.25 -1.25 -0.80 -3.70 -1.20 -5.50 -1.45 -6.65 -1.75 -9.50 -2 -20.25 -0.15 -6.05 -0.55 -13.90 -0.90 -17.45 -0.55 -6.05 -0.55 -6.45 0.30 -7.10 0.90 -0.60 0.90 -1.40 0.70 -11.40 -0.20 -9.15 -0.15 -10.85 0.50 -11.50 0.55 -0.55 0.70 -1.50 0.55 -3.40 -0.50 -6.65 -0.10 -12.20 1.25 -17.90 2.90 -12.10 4.10 -17.60 4.80 -22.25 1.60 -10.55 3.15 -17.65 4.45 -20.85 2.20 -5.45 5.75 -14.65 7.30 -18.90 1.60 -4.55 7.20 -19.10 8.95 -23.25 l1.20 -3 6.85 0 6.85 0 1.35 1.60 c0.75 0.90 2.35 1.95 3.55 2.40 3.15 1.10 5.80 2.75 9.30 5.85 3.65 3.15 9.05 9.50 11.55 13.55 l1.75 2.90 -0.55 5.10 c-0.30 2.80 -0.75 5.80 -1.05 6.60 -1.15 3.45 -3.55 10.25 -4.90 14 -2.65 7.20 -2.65 7.05 -1.30 8.30 l1.20 1.10 6.60 -2.55 c3.65 -1.40 7.35 -2.65 8.15 -2.85 0.85 -0.15 2.95 -1 4.70 -1.80 2.15 -1.05 4.45 -1.65 7.25 -1.95 2.20 -0.20 4.95 -0.65 6.05 -0.95 1.10 -0.30 2.75 -0.55 3.70 -0.55 1.15 0 1.95 -0.35 2.65 -1.25 0.80 -1.05 1.40 -1.25 3.65 -1.25 2.35 0 2.85 -0.15 3.55 -1.25 0.75 -1.15 1.15 -1.25 4.15 -1.20 1.80 0 7.85 -0.25 13.40 -0.55 l10.15 -0.55 2.10 1.45 c1.20 0.80 3.50 2.15 5.15 3 6.05 3.05 9.75 7.55 9.75 11.90 0 2.85 -1.65 9.10 -3.30 12.25 -1.55 3.15 -4.50 6.05 -7.60 7.45 -1.30 0.60 -2.90 1.60 -3.60 2.25 -1.60 1.45 -5.05 3.60 -8.50 5.30 -3.10 1.50 -6.65 2.50 -12.90 3.70 -2.30 0.45 -5.70 1.50 -7.50 2.35 -1.85 0.80 -4.50 1.65 -5.90 1.85 -3 0.40 -5.05 1.80 -5.45 3.65 -0.50 2.10 -6.30 6.20 -15.10 10.65 -2.55 1.30 -4.65 2.55 -4.65 2.75 0 0.60 2.95 2.20 15.60 8.65 17.35 8.85 25.35 14.10 31.65 20.75 2.65 2.75 3.70 3.45 8.75 5.70 l5.75 2.55 6.30 -0.10 c6.10 -0.10 6.40 -0.05 7.15 1.05 1.15 1.60 1 6.10 -0.25 8.90 -0.60 1.30 -2.60 3.75 -4.90 6 -2.15 2.05 -4.05 4.30 -4.20 5 -0.20 0.70 -1.20 1.85 -2.20 2.60 -1.05 0.75 -3.35 2.50 -5.15 3.90 -5.65 4.35 -13.25 7.50 -18.10 7.50 -1.80 0 -7.75 -4.20 -15.90 -11.25 -2.90 -2.50 -6.70 -5.40 -8.50 -6.50 -1.80 -1.05 -4.05 -2.45 -5.10 -3.05 -2.95 -1.90 -27.25 -13.80 -32.90 -16.15 -2.90 -1.20 -5.50 -2.40 -5.80 -2.65 -0.55 -0.40 -2.20 1.10 -3.10 2.85 -0.25 0.55 -0.65 2.80 -0.85 5 -0.25 2.80 -0.65 4.45 -1.40 5.45 -1.35 1.90 -0.75 3.55 2 5.55 1.50 1.05 2.30 2.10 2.70 3.50 0.80 2.50 0.70 10.10 -0.15 13.95 -0.55 2.60 -0.85 3.10 -2.40 3.95 -2.45 1.35 -4.35 3.20 -6.25 6.15 -1.35 2.05 -2 2.65 -3.40 2.90 -1.30 0.25 -1.85 0.65 -2.05 1.60 -0.35 1.40 -1.30 1.85 -5.30 2.65 -3.05 0.55 -16.80 1.15 -18 0.70z"/>
    <path d="M387.15 521.70 c-1.65 -0.35 -4.80 -1.40 -7 -2.30 -3.20 -1.30 -4.55 -2.25 -7.70 -5.40 -4.25 -4.25 -7.80 -9.25 -10.95 -15.50 -2.85 -5.65 -5.50 -13.10 -5.50 -15.40 0 -1.05 -0.20 -2.10 -0.45 -2.35 -0.25 -0.30 -0.60 -1.95 -0.70 -3.75 -0.15 -1.80 -0.55 -4.60 -0.90 -6.25 -0.35 -1.65 -0.70 -5.80 -0.80 -9.25 -0.10 -3.45 -0.30 -10.60 -0.45 -15.95 -0.30 -10 -0.05 -13.25 1.75 -20.60 2.70 -10.95 9.85 -20.90 18.85 -26.15 3.95 -2.30 6.05 -2.75 9.10 -1.90 1.80 0.55 4.05 3 5.70 6.30 0.80 1.65 1.80 3.40 2.15 3.80 0.35 0.40 0.80 1.30 1 2 0.20 0.70 1 2.60 1.75 4.25 3 6.65 3.45 8.60 3.40 15.65 l-0.05 6.60 -2.90 1.80 c-1.65 0.95 -2.95 1.90 -3 2.10 0 0.20 -0.20 2.15 -0.45 4.35 -0.80 7.25 -1.65 18.45 -1.55 20.75 0.05 1.25 0.15 3.85 0.20 5.80 0.15 3.15 0.45 4.25 2.80 9.10 3.05 6.25 2.55 5.90 9.85 6.45 7.70 0.55 18 -2.20 21.45 -5.80 4.70 -4.80 9.25 -13.60 9.25 -17.90 0 -1.20 1.15 -4 3.80 -9.05 9.80 -18.85 10 -19.15 14.05 -20.95 2 -0.85 3.60 -1.15 6.35 -1.15 4.35 0 4.65 0.20 9.80 6.05 4 4.50 4.35 5.95 2.35 9.45 -1.25 2.25 -5.15 7.55 -7.90 10.70 -1.10 1.25 -1.95 2.85 -2.20 4.05 -0.45 2.65 -4 12.25 -5.85 15.90 -1.30 2.65 -1.40 3.05 -0.85 5 0.30 1.15 1.20 3.55 2.05 5.25 l1.50 3.20 2.30 -0.35 c1.30 -0.20 2.85 -0.65 3.45 -1.05 0.60 -0.40 2.05 -0.70 3.15 -0.70 1.65 0 2.40 0.30 3.55 1.45 1.25 1.25 1.45 1.85 1.45 4.20 0 5.30 -0.50 7.40 -2.05 8.30 -0.85 0.45 -1.75 1.65 -2.20 2.85 -1.10 2.85 -3.90 5.50 -7.10 6.70 -1.50 0.55 -2.90 1 -3.10 1 -0.25 0 -2.60 0.70 -5.30 1.50 -6.45 2 -8.35 1.95 -11.30 -0.20 -2.80 -2.05 -5.40 -5.15 -7.20 -8.70 l-1.35 -2.60 -1.35 1.65 c-0.70 0.95 -3.40 4.30 -5.95 7.45 l-4.65 5.80 -4.60 1.50 c-2.55 0.85 -6.30 1.90 -8.35 2.30 -4.55 0.95 -13.05 0.95 -17.35 0z"/>
    <path d="M676.20 521.50 c-8.50 -2.20 -13.30 -5.70 -19.20 -14 -5.40 -7.60 -11 -20 -11 -24.40 0 -1.05 -0.20 -2.10 -0.45 -2.35 -0.25 -0.30 -0.55 -1.95 -0.70 -3.75 -0.10 -1.80 -0.55 -5.55 -1 -8.35 -0.45 -2.75 -0.80 -7.05 -0.80 -9.50 0.05 -2.40 -0.10 -8.65 -0.30 -13.90 -0.35 -9.80 -0.15 -12.15 1.75 -20.25 2.55 -10.85 9.80 -20.95 18.85 -26.25 7 -4.10 11.50 -2.65 15.10 4.85 0.85 1.75 1.75 3.50 2.05 3.90 0.95 1.50 4.95 11.30 5.55 13.65 0.35 1.45 0.50 3.90 0.30 6.15 -0.15 2.05 -0.05 3.80 0.20 3.95 0.80 0.50 0.50 3.55 -0.40 4.35 -0.50 0.40 -1.85 1.30 -3 1.90 -1.20 0.65 -2.15 1.55 -2.15 2 0 0.45 -0.20 1 -0.45 1.30 -0.25 0.25 -0.55 1.90 -0.70 3.70 -0.15 1.80 -0.50 6.65 -0.90 10.75 -0.35 4.15 -0.55 8.40 -0.50 9.50 0.05 1.10 0.15 3.60 0.20 5.50 0.15 3.05 0.50 4.25 2.80 9.05 3 6.35 2.50 6 9.85 6.55 7.70 0.55 18 -2.20 21.45 -5.80 4.70 -4.75 9.25 -13.45 9.25 -17.55 0 -1.60 1.25 -4.45 6.15 -13.80 3.35 -6.45 6.75 -12.55 7.55 -13.55 2.20 -2.65 6 -4.15 10.50 -4.15 4.35 0 4.65 0.20 9.80 6.05 2.95 3.35 3.50 4.25 3.50 5.80 0 2.15 -1.65 5.15 -5.10 9.30 -1.30 1.60 -2.40 3.10 -2.40 3.30 0 0.25 -0.80 1.15 -1.75 2.10 -0.95 0.95 -1.75 2.20 -1.75 2.80 0 1.55 -3.25 10.70 -5.55 15.65 l-2 4.25 1.10 3.25 c0.60 1.80 1.55 4.10 2.10 5.15 1.05 1.90 1.10 1.90 3.35 1.60 1.25 -0.20 2.75 -0.65 3.35 -1.05 0.60 -0.40 2.05 -0.70 3.15 -0.70 1.65 0 2.40 0.30 3.55 1.45 1.30 1.30 1.45 1.80 1.45 4.65 0 5.05 -0.50 6.95 -1.95 7.80 -0.70 0.40 -1.95 2.05 -2.70 3.65 -1.65 3.45 -4.25 5.40 -8.95 6.65 -1.75 0.50 -4.90 1.40 -7.05 2.10 -2.15 0.65 -4.75 1.20 -5.80 1.20 -3.65 0 -8.35 -4.10 -11.50 -10.05 l-1.60 -2.95 -1.95 2.35 c-3.15 3.90 -7.40 9.30 -8.70 10.95 -0.95 1.20 -2.25 1.90 -5.90 3.10 -2.55 0.85 -6.35 1.90 -8.40 2.30 -5.10 1.10 -13.75 1 -18.30 -0.20z"/>
    <path d="M895.55 520 c-3.25 -0.70 -6.45 -2.80 -8.05 -5.30 -1.65 -2.65 -2.70 -7.20 -3.50 -15.45 -0.30 -3.30 -0.90 -8.20 -1.30 -10.85 -0.60 -3.90 -0.65 -5.95 -0.20 -10 0.25 -2.85 0.70 -8.40 1 -12.40 0.30 -4 0.75 -8.60 1 -10.25 0.60 -3.70 1.05 -8.85 1 -11.55 0 -1.25 0.25 -2.30 0.75 -2.70 0.40 -0.35 0.75 -1.35 0.75 -2.30 0 -0.90 0.25 -1.80 0.55 -2 0.30 -0.15 1.15 -1.70 1.95 -3.40 1.30 -2.95 3.85 -5.80 5.20 -5.80 0.35 0 1.80 -0.60 3.25 -1.30 2.30 -1.15 3 -1.30 5.70 -1 2.95 0.30 7.35 2.30 7.35 3.30 0 0.30 0.75 0.50 1.70 0.50 1.40 0 2.05 0.40 3.45 2 0.90 1.10 2.55 2.35 3.65 2.80 3.85 1.60 8.70 4.75 11.20 7.30 2.20 2.20 2.50 2.80 2.50 4.60 0 2.20 -1.35 8.55 -2.05 9.80 -0.25 0.40 -0.85 1.55 -1.30 2.50 -0.50 0.95 -1.30 2.25 -1.80 2.85 -1.15 1.25 -2.15 5.25 -2.80 10.90 -0.35 3.10 -1.30 6.15 -4 13.05 -2 5 -3.55 9.80 -3.55 10.75 0 1.30 -0.35 2 -1.55 3 l-1.60 1.30 3.30 1.85 c4.15 2.30 4.85 3.25 4.85 6.85 l0 2.80 -5.40 3.05 c-2.95 1.70 -5.70 3.10 -6.15 3.10 -0.40 0 -0.95 0.20 -1.20 0.40 -1.65 1.45 -10.75 2.40 -14.70 1.60z"/>
    <path d="M784.30 510.35 c-3.35 -1.35 -4.20 -1.90 -5.85 -4.10 -5.15 -6.85 -7 -14.70 -5.90 -24.85 0.35 -3.10 0.55 -7.75 0.50 -10.30 -0.10 -2.55 0.10 -4.90 0.35 -5.25 0.50 -0.60 0.75 -2.50 1.55 -11.60 0.25 -2.75 0.80 -6 1.30 -7.25 1.15 -2.95 2.50 -8.50 3.20 -13.10 0.35 -2 0.80 -4.75 1.05 -6.15 0.70 -3.85 1.50 -10.35 1.50 -11.85 0 -0.75 0.70 -3.05 1.50 -5.15 1 -2.50 1.50 -4.65 1.50 -6.40 0 -1.65 0.30 -3.05 0.85 -3.85 0.45 -0.65 1 -2.40 1.20 -3.90 0.25 -1.70 0.95 -3.55 1.90 -5.05 0.85 -1.25 1.95 -3.25 2.50 -4.40 1.70 -3.65 6.75 -6.15 12.50 -6.15 5.95 0 11.25 2.75 17.95 9.15 2.50 2.45 3.60 3.90 3.60 4.70 0 0.70 0.70 2.20 1.55 3.45 4 5.80 5.50 13.90 3.65 19.40 -0.45 1.30 -0.70 2.45 -0.60 2.60 0.15 0.10 1.35 -0.05 2.70 -0.35 6.25 -1.30 7.80 -1.45 12.70 -1.15 3.65 0.20 6.35 0.70 8.75 1.55 5.35 1.90 10.80 4.70 12.60 6.55 0.90 0.85 1.90 1.60 2.25 1.65 0.35 0 1.65 0.65 2.90 1.40 2.10 1.25 2.25 1.50 2.25 3.45 -0.20 15.45 -0.15 15.35 -3.50 16.15 -5.25 1.25 -9.75 1.95 -12.55 1.95 l-3 0 -4.85 -4.20 -4.85 -4.15 -3.45 -0.30 c-2.90 -0.25 -4.20 -0.05 -7.35 0.95 -4.75 1.50 -8.45 3.80 -9.10 5.60 -0.25 0.75 -1.05 1.95 -1.75 2.70 -0.70 0.75 -1.40 2.10 -1.60 3 -0.65 3.55 -1.50 5.90 -2.05 5.90 -0.35 0 -0.70 1.05 -0.85 2.65 -0.10 1.40 -0.85 4.30 -1.60 6.35 -1.35 3.60 -1.45 4.20 -1.65 14 l-0.20 10.25 -1.95 2.60 c-1.10 1.45 -3.55 4.20 -5.45 6.10 -3.50 3.50 -5.45 4.55 -8.65 4.55 -1.95 0 -5.65 1.85 -6.60 3.30 -1.10 1.70 -3.95 1.55 -8.95 -0.45z"/>
    <path d="M909.75 418 c-0.15 -0.25 -1 -0.50 -1.80 -0.50 -1.75 0 -5.20 -2.20 -7.20 -4.60 -2.60 -3.05 -4.25 -7.50 -4.25 -11.25 0.05 -7.60 3.20 -15.70 8.20 -21.15 1.10 -1.25 2.50 -3.10 3.05 -4.10 0.75 -1.45 1.75 -2.30 4.50 -3.65 1.90 -0.95 4.50 -1.90 5.75 -2.05 2.70 -0.35 8.15 0.85 9.95 2.20 0.75 0.50 2.75 1.70 4.55 2.65 1.75 0.95 4.40 2.85 5.85 4.30 2.50 2.40 2.65 2.70 2.65 5 0 2.70 -1.20 9.70 -2.05 11.75 -0.30 0.80 -1.45 1.80 -2.65 2.40 -3.05 1.60 -4.30 2.95 -4.30 4.70 -0.05 2.15 -1.15 5 -2.70 7 -0.80 1.10 -1.30 2.35 -1.30 3.45 0 1.75 0 1.75 -3.35 2.60 -1.90 0.45 -4.20 1.05 -5.20 1.30 -2.40 0.60 -9.30 0.60 -9.70 -0.05z"/>
  </g>
  <g fill="#ffffff">
    <path d="M0 441 l0 -441 561 0 561 0 0 441 0 441 -561 0 -561 0 0 -441z m531.60 118.50 c6.95 -1 11.55 -3.70 19.65 -11.50 2.20 -2.15 4.50 -4 5.10 -4.20 0.70 -0.25 1.25 -0.90 1.40 -1.70 0.70 -3.35 2.60 -8.35 5.30 -13.85 1.75 -3.60 2.95 -6.70 2.95 -7.65 0 -1.80 1.50 -7.65 2.65 -10.20 0.50 -1.10 0.85 -4.10 1.05 -9.40 0.45 -13.55 1.65 -21.70 3.95 -27.25 0.95 -2.20 2 -5.40 2.35 -7.10 l0.70 -3.10 5.15 -2 c2.85 -1.15 5.35 -2.05 5.55 -2.05 0.20 0 2.85 -0.80 5.85 -1.75 4.25 -1.40 6.50 -1.80 10 -1.95 2.50 -0.10 4.85 0.05 5.30 0.35 0.55 0.35 2.35 0.25 5.65 -0.35 2.70 -0.45 5.65 -0.80 6.60 -0.80 0.95 0 2.75 -0.25 4 -0.55 2.55 -0.65 2.90 -1.15 4.90 -6.95 1.45 -4.15 1.65 -6.50 0.60 -6.50 -0.40 0 -1.50 -1.15 -2.50 -2.50 -1.95 -2.70 -2.25 -2.90 -7.30 -4.40 -1.80 -0.55 -5.05 -1.70 -7.25 -2.60 -3.35 -1.30 -4.90 -1.60 -9.50 -1.85 -3 -0.15 -6.10 -0.25 -6.85 -0.25 -1.70 0.05 -1.70 -0.15 -0.10 -2.45 1.05 -1.55 1.15 -2 0.65 -2.80 -0.50 -0.85 -0.40 -1.25 0.50 -2.45 1.35 -1.85 2.55 -6.15 2.55 -9.25 0 -2.70 1.55 -6.10 3.25 -7.25 2.90 -1.90 0.80 -7.30 -4.30 -11.05 -1.35 -1.05 -2.45 -2 -2.45 -2.20 0 -0.20 -0.85 -0.65 -1.85 -1 -3.85 -1.20 -9.20 -4.30 -19.70 -11.25 -6.35 -4.20 -11.55 -7.35 -12.50 -7.50 -0.95 -0.15 -2.60 -0.60 -3.65 -1 -1.50 -0.60 -4.50 -0.75 -13 -0.75 -6.10 0 -11.40 0 -11.80 -0.05 -0.45 -0.05 -2.35 0.85 -4.25 1.95 -1.95 1.10 -5.45 2.95 -7.85 4.10 -4.15 2.05 -4.85 2.65 -15.15 13.15 -5.95 6.05 -11.60 12.25 -12.60 13.75 -2.15 3.40 -4.25 8.05 -6.25 13.90 -1.40 4.10 -1.55 5.05 -1.55 11 -0.05 5.85 0.10 6.80 1.25 9.50 3.35 8.05 12.80 16.55 22.85 20.65 4.50 1.80 8.20 2.35 19.80 3 5.20 0.30 6 0.45 6.15 1.25 0.15 0.60 -3.15 4.30 -10.50 11.75 -11.05 11.30 -13.80 14.45 -17.40 20.35 -1.55 2.60 -2.20 4.30 -2.50 6.50 -0.20 1.65 -0.75 4.15 -1.15 5.50 -1.65 5.15 -1.95 7.95 -1.70 16.50 0.30 10.45 1.15 16.20 3.85 26 0.60 2.20 1.20 4.50 1.35 5.05 0.25 1.10 1.60 1.70 7.90 3.55 2.05 0.60 9.10 1.95 11 2.10 0.30 0 2 -0.20 3.85 -0.45z m-318.10 -23.55 c4 -0.80 4.95 -1.25 5.30 -2.65 0.20 -0.95 0.75 -1.35 2.05 -1.60 1.40 -0.25 2.05 -0.85 3.40 -2.90 1.90 -2.95 3.80 -4.80 6.25 -6.15 1.55 -0.85 1.85 -1.35 2.35 -3.95 1.45 -6.75 0.70 -12.35 -1.85 -13.85 -0.80 -0.50 -2.10 -1.70 -2.80 -2.65 -1.55 -2 -1.45 -4.25 0.25 -6.65 1.30 -1.80 1.35 -2.75 0.10 -1.10 -0.70 0.95 -1.20 1.10 -2.25 0.85 -2.75 -0.70 -1.05 -4.80 2 -4.80 1.60 0 1.70 -0.10 1.40 -1.35 -0.20 -0.80 -0.35 -1.50 -0.40 -1.65 -0.15 -0.85 4 -6 4.85 -6 0.25 0 1.80 0.65 3.50 1.40 1.70 0.80 4.70 2.05 6.60 2.90 4.30 1.75 28.65 13.80 31.15 15.40 1.05 0.60 3.30 2 5.10 3.05 1.80 1.10 5.60 4 8.50 6.50 2.90 2.50 7.30 6.05 9.80 7.90 l4.60 3.35 2.65 -0.55 c3.65 -0.75 10 -3.90 13.95 -6.95 1.80 -1.40 4.10 -3.15 5.15 -3.90 1 -0.75 2 -1.90 2.20 -2.60 0.15 -0.70 2.05 -2.95 4.20 -5 5.35 -5.20 7.10 -9.15 5.15 -11.95 -0.80 -1.15 -1 -1.15 -5.65 -0.85 -2.65 0.20 -5.20 0.35 -5.70 0.35 -0.50 0 -3.65 -1.15 -7 -2.60 -5.55 -2.30 -6.40 -2.90 -9.35 -5.90 -6.85 -7 -14.55 -12.05 -31.90 -20.85 -13.70 -7 -17.10 -9 -17.10 -10.10 0 -0.95 2.45 -2.60 7.50 -5.05 7.15 -3.55 13.30 -8 13.75 -9.95 0.40 -1.85 4.25 -4.70 5.40 -4 1 0.55 1.95 0.30 6.20 -1.65 1.70 -0.75 4.95 -1.75 7.25 -2.20 6.25 -1.20 9.80 -2.20 12.90 -3.70 3.45 -1.70 6.90 -3.85 8.50 -5.30 0.70 -0.65 2.30 -1.65 3.60 -2.25 5.05 -2.35 8.40 -7.20 10.15 -14.75 l0.90 -3.75 -1.20 -2.30 c-1.45 -2.85 -4.75 -5.85 -8.70 -7.80 -1.65 -0.85 -3.95 -2.20 -5.10 -2.95 -1.95 -1.35 -3.60 -1.80 -4.25 -1.20 -0.25 0.25 -7.95 0.65 -19 0.95 -2.35 0.05 -3.05 0.25 -3.70 1.20 -0.60 0.90 -1.25 1.10 -3.45 1.10 -2.20 0 -2.85 0.20 -3.60 1.15 -0.70 0.95 -1.60 1.25 -4.05 1.50 -1.70 0.20 -3.75 0.65 -4.50 1.05 -0.75 0.40 -2.75 0.70 -4.60 0.65 -2.60 0 -3.90 0.30 -6.50 1.55 -1.80 0.85 -3.90 1.70 -4.75 1.85 -0.80 0.20 -5 1.70 -9.35 3.35 l-7.80 3 -1.55 -1.65 c-2.15 -2.40 -2.10 -3.20 1.05 -11.70 1.60 -4.45 4.15 -11.65 4.95 -14.10 0.30 -0.90 0.70 -3.25 0.90 -5.25 0.40 -3.55 0.40 -3.70 -1.25 -6.40 -2.30 -3.85 -7.75 -10.25 -11.40 -13.40 -3.50 -3.10 -6.15 -4.75 -9.30 -5.85 -1.20 -0.45 -2.80 -1.50 -3.55 -2.40 l-1.35 -1.60 -5.35 0 -5.35 0 -1.20 3 c-1.70 4.15 -7.30 18.70 -8.95 23.25 -1.55 4.25 -5.10 13.45 -7.30 18.90 -1.30 3.20 -2.85 10.30 -4.45 20.85 -0.75 4.75 -2.05 10.85 -4.80 22.25 -1.50 6.15 -1.90 14.25 -0.80 16.35 0.60 1.10 0.05 3.65 -1.05 5.05 -0.30 0.35 -0.45 4.90 -0.40 11.55 0.10 9.75 0.05 10.95 -0.70 11.25 -0.70 0.25 -0.80 0.75 -0.45 2.95 0.55 3.95 0.60 4.65 0.90 17.60 0.35 11.70 0.60 14.55 2.10 21.25 0.40 1.80 0.95 4.25 1.20 5.50 1.20 5.90 1.65 7.40 2.85 9.90 2.05 4.35 4.50 6.65 8.15 7.75 1.30 0.35 12.10 -0.15 15 -0.70z m189.50 -15.75 c2.05 -0.40 5.80 -1.45 8.35 -2.30 l4.60 -1.50 4.65 -5.80 c2.55 -3.15 5.40 -6.75 6.30 -7.95 2.45 -3.10 3.15 -2.95 5.35 1.45 1.80 3.55 4.65 6.95 7.60 8.95 2.50 1.75 1.55 1.85 11.40 -1.05 3.05 -0.90 6.10 -1.90 6.80 -2.25 2 -1.05 4.35 -3.75 5.20 -5.95 0.50 -1.20 1.40 -2.40 2.25 -2.90 1.25 -0.70 1.45 -1.15 1.75 -4.10 0.30 -2.65 0.20 -3.55 -0.45 -4.55 -1.15 -1.75 -3.05 -2.60 -4 -1.80 -1.10 0.90 -6.70 2.20 -8.05 1.85 -1.35 -0.35 -3.45 -4.30 -5 -9.45 l-0.90 -2.85 2.30 -4.90 c2.35 -5.10 5.85 -14.80 5.85 -16.35 0 -0.50 0.85 -1.85 1.90 -3 2.75 -3.15 6.65 -8.45 8 -10.80 1.40 -2.50 1.40 -2.50 -4.20 -8.35 -3.85 -4 -4 -4.10 -6.30 -4.10 -3 0 -7.25 1.85 -9 3.90 -1.35 1.60 -3.15 4.90 -10.10 18.20 -2.65 5.05 -3.80 7.85 -3.80 9.05 0 4.30 -4.55 13.10 -9.25 17.90 -3.75 3.85 -13.55 6.30 -23.20 5.75 -8.80 -0.45 -7.95 0.05 -11.50 -7.30 -1.65 -3.50 -3.05 -6.75 -3.05 -7.20 0 -0.40 0.25 -1.35 0.60 -2.05 0.50 -1.10 0.45 -1.60 -0.30 -2.95 -0.75 -1.40 -0.80 -2 -0.30 -5.10 0.35 -1.90 0.80 -6.25 1.05 -9.70 0.60 -9.10 1.30 -15.05 1.80 -15.50 0.20 -0.20 1.50 -1.05 2.85 -1.90 l2.40 -1.45 0.15 -5.20 c0.15 -5.55 -0.40 -7.85 -3.25 -14.20 -0.75 -1.65 -1.55 -3.55 -1.75 -4.25 -0.20 -0.70 -0.65 -1.60 -1 -2 -0.35 -0.40 -1.30 -2.10 -2.15 -3.75 -1.80 -3.65 -4.10 -6.05 -6.25 -6.45 -3.80 -0.75 -14.45 7.75 -18.90 15.20 -5.75 9.55 -7.75 18.55 -7.20 31.90 0.15 4.60 0.40 11.15 0.45 14.60 0.10 3.45 0.45 7.60 0.75 9.25 0.35 1.65 0.75 4.45 0.90 6.25 0.15 1.95 0.60 3.75 1.15 4.50 0.70 0.95 0.80 1.50 0.40 2.20 -1.05 1.85 4.65 15.20 9.75 22.80 1.40 2.05 4.25 5.45 6.30 7.50 3.15 3.15 4.50 4.10 7.70 5.40 7.35 3.05 14.20 3.80 21.35 2.30z m290 0 c2.05 -0.40 5.85 -1.45 8.40 -2.30 3.65 -1.20 4.95 -1.90 5.90 -3.10 0.65 -0.85 2.45 -3.10 4 -5.05 1.55 -1.90 3.85 -4.80 5.10 -6.35 3.10 -3.95 3.50 -3.90 6.10 1 2.10 3.95 4.95 7.25 7.80 8.90 l2.20 1.30 5.35 -1.60 c8.75 -2.55 9.75 -2.95 11.75 -4.30 1.20 -0.85 2.40 -2.35 3.25 -4.20 0.80 -1.55 2 -3.20 2.75 -3.60 1.10 -0.65 1.40 -1.30 1.70 -3.70 0.40 -3.40 -0.05 -5 -1.90 -6.35 -1.30 -0.95 -1.45 -1 -3 -0.20 -2.40 1.15 -6.20 2 -7.55 1.70 -1.40 -0.40 -2.80 -2.80 -4.65 -8.20 l-1.40 -4.10 2.30 -4.90 c2.60 -5.45 5.90 -14.65 5.90 -16.30 0 -0.60 0.80 -1.85 1.75 -2.80 0.95 -0.95 1.75 -1.85 1.75 -2.10 0 -0.20 1.10 -1.70 2.40 -3.30 1.35 -1.60 3.05 -3.95 3.80 -5.30 1.70 -2.85 1.75 -2.75 -4 -8.75 -3.85 -4 -4 -4.10 -6.30 -4.10 -3.15 0 -7.35 1.90 -9.20 4.15 -0.80 1 -4.20 7.10 -7.55 13.55 -4.90 9.35 -6.15 12.20 -6.15 13.80 0 4.10 -4.55 12.80 -9.25 17.55 -3.75 3.85 -13.55 6.30 -23.20 5.75 -8.85 -0.45 -8 0.10 -11.55 -7.45 -3 -6.40 -3.05 -6.55 -2.50 -8.70 0.55 -1.80 0.50 -2.30 -0.20 -3.40 -0.70 -1.05 -0.75 -1.70 -0.25 -4.60 0.30 -1.90 0.75 -6.20 1 -9.65 0.90 -11.95 1 -13.25 1.30 -14 0.15 -0.40 0.25 -1 0.20 -1.35 -0.05 -0.30 1 -1.20 2.30 -1.95 3.55 -2.05 4.25 -2.70 3.60 -3.55 -0.40 -0.45 -0.50 -1.90 -0.25 -4.40 0.20 -2.30 0.10 -4.55 -0.20 -5.85 -0.60 -2.20 -4.65 -12.05 -5.50 -13.40 -0.30 -0.40 -1.20 -2.15 -2.05 -3.90 -1.80 -3.80 -4.25 -6.35 -6.50 -6.80 -3.90 -0.75 -14.50 7.70 -19 15.20 -2.90 4.85 -4.35 8.35 -5.45 13 -1.90 7.95 -2.10 10.55 -1.75 18.75 0.15 4.40 0.40 10.70 0.50 14 0.10 3.30 0.45 7.60 0.80 9.50 0.30 1.95 0.70 4.95 0.80 6.75 0.15 2.10 0.55 3.60 1.15 4.40 0.75 0.90 0.85 1.40 0.45 2.25 -0.40 0.90 -0.15 2.15 1.20 5.90 3.55 9.75 9.70 19.85 15.40 25.25 6.60 6.20 18.25 9.05 28.45 6.90z m213.25 -2.35 c1.10 -0.25 2.20 -0.70 2.50 -0.95 0.25 -0.20 0.80 -0.40 1.20 -0.40 0.45 0 3.20 -1.40 6.15 -3.10 4.70 -2.65 5.40 -3.25 5.40 -4.35 0 -1.95 -1.15 -3.30 -4.40 -5.10 -3.85 -2.15 -4.55 -2.80 -4.25 -4 0.15 -0.55 1.05 -1.60 2 -2.30 1.35 -1.05 1.65 -1.55 1.45 -2.50 -0.20 -0.75 0.90 -4.25 3.45 -10.70 3 -7.50 3.90 -10.45 4.30 -13.65 0.65 -5.65 1.65 -9.65 2.80 -10.95 0.50 -0.60 1.30 -1.90 1.80 -2.85 0.45 -0.95 1.05 -2.10 1.30 -2.50 0.25 -0.40 0.85 -2.45 1.30 -4.60 l0.90 -3.80 -1.50 -1.85 c-2.15 -2.60 -5.85 -5.25 -10.45 -7.50 -2.40 -1.15 -4.60 -2.70 -5.65 -3.85 -1.45 -1.70 -1.90 -1.90 -3.10 -1.65 -1.10 0.25 -1.55 0.10 -1.75 -0.45 -0.45 -1.10 -4.05 -3.10 -6.30 -3.50 -1.30 -0.25 -2.25 -0.10 -3 0.40 -0.65 0.40 -2.15 1.10 -3.40 1.55 -3 1.05 -4.35 2.45 -6 6.05 -0.80 1.70 -1.65 3.25 -1.95 3.40 -0.30 0.20 -0.55 1.10 -0.55 2 0 0.85 -0.25 1.85 -0.55 2.15 -0.25 0.25 -0.60 1.95 -0.75 3.70 -0.40 6.25 -0.60 7.75 -1.15 10.70 -0.30 1.65 -0.80 6.35 -1.05 10.45 -0.30 4.05 -0.70 9.25 -0.95 11.50 -0.25 2.70 -0.15 5.50 0.25 8.30 0.35 2.35 0.90 6.95 1.20 10.25 1.15 12.05 2.80 16.45 7.15 18.95 3.80 2.25 8.25 2.60 13.60 1.15z m-114.50 -8.55 c0.95 -1.45 4.65 -3.30 6.60 -3.30 3.20 0 5.15 -1.05 8.65 -4.55 1.90 -1.90 4.40 -4.65 5.50 -6.10 l2 -2.70 0 -8.95 c0 -9.40 0.40 -12.15 2.60 -17.60 0.90 -2.30 0.95 -2.85 0.40 -3.85 -0.55 -1 -0.55 -1.35 0 -2 0.35 -0.40 0.90 -0.75 1.20 -0.75 0.55 0 1.40 -2.35 2.05 -5.90 0.20 -0.90 0.90 -2.25 1.60 -3 0.70 -0.75 1.50 -1.95 1.75 -2.70 0.85 -2.45 6.75 -5.40 14 -6.95 1.65 -0.35 2.65 -0.35 3.35 0.05 0.75 0.40 1.35 0.40 2.05 0 1.40 -0.75 3.05 0.20 8.55 5 5.20 4.50 5.20 4.50 11.45 3.25 6.40 -1.25 7.70 -1.65 8.35 -2.55 0.45 -0.60 0.70 -2.90 0.75 -6.80 0 -3.25 0.05 -6.15 0.10 -6.50 0.05 -0.60 -4 -3.30 -5.10 -3.35 -0.35 -0.05 -1.35 -0.80 -2.25 -1.65 -3.15 -3.10 -13.10 -7.35 -18.35 -7.80 -4.60 -0.40 -9.40 -0.20 -10.50 0.40 -1.60 0.85 -9 1.25 -9 0.50 0 -0.35 0.55 -2.20 1.25 -4.10 1.45 -3.95 1.50 -5.30 0.55 -9 -0.95 -3.65 -1.95 -6 -3.75 -8.60 -0.85 -1.25 -1.55 -2.75 -1.55 -3.45 0 -1.40 -5.80 -7.25 -10.05 -10.05 -3.35 -2.20 -7.55 -3.80 -10 -3.80 -4.10 0 -9.55 2.95 -10.80 5.90 -0.40 0.95 -1.30 2.50 -1.95 3.35 -1.90 2.55 -2.80 5.10 -2.15 6.15 0.50 0.75 0.30 1.30 -1 3.10 -1.60 2.25 -1.90 3.45 -1.05 4.30 0.35 0.35 -0.15 2.20 -1.50 5.65 -1.10 2.80 -2 5.70 -2 6.45 0 1.50 -0.80 8 -1.50 11.85 -0.25 1.40 -0.70 4.15 -1.05 6.15 -0.70 4.70 -2.05 10 -3.40 13.85 -0.70 2.05 -1.05 4.15 -1.05 6.85 0 2.10 -0.25 4.40 -0.55 5.10 -0.45 0.95 -0.45 1.45 0 2 0.50 0.60 0.40 1.15 -0.40 2.85 -1.20 2.40 -1.35 5 -0.45 6.45 0.45 0.75 0.45 1.50 -0.05 3.45 -0.65 2.55 -1.40 9.05 -1.30 11.15 0.40 7 2.35 12.55 6.20 17.65 1.65 2.20 2.50 2.75 5.85 4.10 4.80 1.95 5 1.95 5.95 0.45z m126.20 -92.75 c1 -0.25 3.30 -0.85 5.20 -1.30 3.35 -0.85 3.35 -0.85 3.35 -2.60 0 -1.10 0.50 -2.35 1.30 -3.45 1.55 -2 2.65 -4.85 2.70 -7 0 -1.75 1.25 -3.10 4.30 -4.65 2.50 -1.30 2.90 -2.20 4 -8.25 l0.85 -4.75 -1.30 -1.70 c-1.50 -2 -5.10 -4.70 -8.35 -6.35 -1.20 -0.60 -2.80 -1.55 -3.50 -2.10 -1.95 -1.45 -6.70 -2.40 -8.90 -1.80 -3.45 0.95 -7.40 3.45 -8.40 5.35 -0.50 1 -1.90 2.80 -3 4.05 -3.75 4.10 -5.80 8.25 -7.50 15 -0.35 1.50 -0.65 3.60 -0.70 4.65 0 2.20 2.25 7.40 4.25 9.75 2.15 2.55 5.60 4.75 6.95 4.40 0.75 -0.20 1.40 0 1.80 0.45 0.70 0.85 4.15 1 6.95 0.30z"/>
    <path d="M524.75 526.40 c-1.55 -4.05 -2.60 -8.70 -2.25 -9.65 0.25 -0.70 0.25 -1.30 -0.10 -1.65 -1.10 -1.10 6.20 -19.25 10.80 -26.85 3.30 -5.40 7.50 -10.25 8.95 -10.25 0.95 0 0.05 14.30 -1.30 20.50 -2.60 12.20 -3.05 13.30 -8.70 21.90 -1.50 2.25 -3.55 4.65 -4.55 5.35 -2.05 1.40 -2.55 1.50 -2.85 0.65z"/>
    <path d="M545 432.45 c-10.80 -2.45 -12.60 -2.90 -14.10 -3.80 -1.90 -1.10 -3.90 -3.85 -3.90 -5.25 0 -0.55 1.95 -3.05 4.40 -5.55 2.40 -2.55 4.95 -5.25 5.60 -6.10 1.30 -1.55 2.80 -2.40 6.25 -3.50 5 -1.55 6.80 -1.85 13.20 -2 7.45 -0.20 8.75 0.20 11.05 3.10 l1 1.25 -2.70 2.95 c-1.60 1.70 -3.05 3.85 -3.55 5.30 -1.80 5.05 -2.50 6.30 -4.80 8.35 -1.45 1.30 -3.30 2.40 -4.65 2.80 -1.35 0.35 -2.40 1 -2.55 1.50 -0.55 1.70 -1.40 1.85 -5.25 0.95z"/>
  </g>
</svg>
